<svg width="100" height="100" xmlns="http://www.w3.org/2000/svg" xml:space="preserve" enable-background="new 0 0 100 100" version="1.1">

 <g>
  <title>Layer 1</title>
  <g fill="#231F20" id="svg_1">
   <g stroke="null" id="svg_2">
    <circle stroke="null" id="svg_3" r="8.16471" cy="17.6137" cx="22.336" fill="#ffffff"/>
    <path stroke="null" id="svg_4" d="m37.999,27.97356l0,-0.03948l-29.636,0l0,0.02665c-2.142,0 -3.878,1.70657 -3.894,3.81684l-0.003,0l0,23.13499l0.039,0c-0.002,0.88142 0.337,1.76283 1.018,2.435c1.358,1.34137 3.56,1.34137 4.919,0c0.68,-0.67217 1.019,-1.55358 1.017,-2.435l0.008,0l0,-15.98001l0,-0.16977l0.009,0c0.025,-0.58432 0.505,-1.0502 1.101,-1.0502c0.598,0 1.078,0.46687 1.103,1.0502l0.009,0l0,0.16977l0,10.30459l0,31.87415c0.003,2.21588 1.822,4.0103 4.068,4.0103c2.246,0 4.068,-1.79738 4.068,-4.01524l0,-21.32379l0.03,0c0,-0.61492 0.504,-1.11337 1.126,-1.11337c0.622,0 1.127,0.49845 1.127,1.11337l0.029,0l0,21.32379c0,2.21786 1.823,4.01524 4.069,4.01524c2.247,0 4.068,-1.79738 4.068,-4.01524l0,-21.32379l0,-10.54543l0,-10.30459l0,-0.16977c0,-0.60702 0.497,-1.09758 1.112,-1.09758c0.613,0 1.11,0.49055 1.11,1.09758l0,0.16977l0,15.981l0.038,0c-0.002,0.88142 0.337,1.76283 1.018,2.435c1.359,1.34137 3.561,1.34137 4.92,0c0.681,-0.67217 1.02,-1.55358 1.018,-2.435l0.007,0l0,-23.13499c0.002,-1.98886 -1.535,-3.60661 -3.498,-3.805z" fill="#ffffff"/>
   </g>
   <g stroke="null" id="svg_5">
    <circle stroke="null" id="svg_6" r="8.21209" cy="17.66009" cx="72.297" fill="#ffffff"/>
    <path stroke="null" id="svg_7" d="m95.534,51.607l-5.55,-20.44336c-0.003,-0.01579 -0.009,-0.03158 -0.013,-0.04738l-0.098,-0.36027l-0.014,0.00395c-0.506,-1.55852 -1.968,-2.6936 -3.715,-2.6936c-0.014,0 -0.026,0.00395 -0.04,0.00395l0,-0.07107l-26.12,0l0,0.06712c-1.747,0 -3.209,1.13607 -3.715,2.6936l-0.014,-0.00395l-0.098,0.35928c-0.004,0.01678 -0.01,0.03257 -0.013,0.04935l-5.55,20.44237l0.052,0.01382c-0.025,0.16878 -0.052,0.33756 -0.052,0.51326c0,1.92668 1.583,3.49014 3.536,3.49014c1.495,0 2.767,-0.91991 3.283,-2.21489l0.025,0.00691l4.071,-14.99594l0,0.05626l0.032,0c0.111,-0.49351 0.536,-0.87056 1.07,-0.87056c0.534,0 0.959,0.37705 1.07,0.87056l0.033,0l0,0.16187c0.002,0.02468 0.015,0.04639 0.015,0.07107c0,0.02468 -0.013,0.04639 -0.015,0.07107l0,0.15299l-6.518,24.01048c-0.105,0.21122 -0.169,0.44318 -0.187,0.68895l-0.014,0.05034l0.008,0.00197c-0.001,0.02764 -0.008,0.0533 -0.008,0.08094c0,1.03441 0.85,1.8724 1.898,1.8724l4.82,0l0,15.87144c0,2.2297 1.831,4.03695 4.091,4.03695c2.259,0 4.091,-1.80824 4.091,-4.03695l0,-15.87144l2.326,0l0,15.87144c0,2.2297 1.832,4.03695 4.091,4.03695c2.26,0 4.091,-1.80824 4.091,-4.03695l0,-15.87144l4.835,0c1.048,0 1.898,-0.83799 1.898,-1.8724c0,-0.02764 -0.007,-0.05429 -0.008,-0.08094l0.008,-0.00197l-0.014,-0.05034c-0.018,-0.24577 -0.082,-0.47772 -0.187,-0.68895l-6.499,-23.93843l0.021,-0.00592c-0.027,-0.09475 -0.06,-0.18852 -0.06,-0.29216c0,-0.60801 0.5,-1.1035 1.118,-1.1035c0.525,0 0.946,0.36619 1.065,0.84885l0.043,-0.01086l4.065,14.97225l0.024,-0.00691c0.517,1.29498 1.788,2.21489 3.283,2.21489c1.953,0 3.536,-1.56345 3.536,-3.49014c0,-0.17569 -0.027,-0.34447 -0.052,-0.51326l0.055,-0.01184z" fill="#ffffff"/>
   </g>
  </g>
 </g>
</svg>