<svg width="512" height="512" xmlns="http://www.w3.org/2000/svg">

 <g>
  <title>Layer 1</title>
  <path fill="white" id="svg_1" d="m260,-1c35.346,0 64,28.654 64,64s-28.654,64 -64,64c-35.346,0 -64,-28.654 -64,-64s28.654,-64 64,-64m119.283,354.179l-48,-192a24,24 0 0 0 -23.283,-18.179l-11.36,0c-22.711,10.443 -49.59,10.894 -73.28,0l-11.36,0a24,24 0 0 0 -23.283,18.179l-48,192c-3.782,15.126 7.666,29.821 23.283,29.821l56,0l0,104c0,13.255 10.745,24 24,24l32,0c13.255,0 24,-10.745 24,-24l0,-104l56,0c15.591,0 27.071,-14.671 23.283,-29.821z"/>
 </g>
</svg>